<svg width="1254" height="1254" viewBox="0 0 1254 1254" fill="none" xmlns="http://www.w3.org/2000/svg">
<path d="M572.42 587.356C615.164 585.721 622.303 654.505 597.976 678.783C592.593 684.153 587.469 686.583 580.392 688.524C532.748 694.66 525.64 597.485 572.42 587.356Z" fill="#FB5002"/>
<path d="M635.26 268.453C829.293 263.781 971.347 414.342 990.176 602.13C997.836 678.488 979.504 766.385 929.589 826.373C924.311 814.837 921.206 808.352 912.707 798.598C928.37 781.833 937.805 744.881 919.522 727.375L914.066 730.853C935.638 697.691 942.962 651.474 942.539 612.519C930.354 622.555 931.432 629.155 929.179 643.801C925.989 664.546 918.573 686.779 904.196 702.528C887.505 720.811 861.414 729.163 837.216 729.818C814.108 730.546 798.494 727.749 778.049 717.199C770.114 713.103 763.017 711.106 755.376 705.222C736.015 690.355 727.76 666.01 724.209 642.736C722.642 632.468 724.435 617.644 715.949 610.466C706.067 602.106 683.362 604.041 676.921 616.163C673.743 622.139 674.117 630.735 673.106 637.403C670.492 660.205 662.048 682.725 646.747 700.09C628.531 720.529 600.06 728.943 573.395 729.965C540.789 731.227 513.977 727.307 489.067 704.921C463.293 679.437 463.738 653.745 456.728 621.648C455.158 615.985 443.095 614.172 441.257 610.637C439.375 607.018 438.803 583.922 442.569 581.753C449.859 577.557 462.78 578.118 470.553 574.794C512.919 556.679 556.187 545.665 602.502 553.046C630.27 557.464 651.773 566.565 668.808 590.743C687.765 577.315 710.255 578.672 729.573 590.601C735.751 581.171 744.153 573.404 754.035 567.983C790.884 547.366 843.628 546.7 883.391 559.002C901.974 564.753 918.371 572.325 937.573 577.667C929.852 527.699 910.417 484.65 875.596 447.192C829.434 397.528 757.672 367.905 689.994 366.473C622.359 364.702 556.181 386.293 502.604 427.608C491.222 436.397 481.256 445.973 470.912 455.897C445.352 428.849 418.142 407.329 381.777 396.637C450.817 321.316 531.515 273.246 635.26 268.453ZM638.744 584.041C620.296 569.244 586.127 564.804 563.184 566.644C539.324 568.229 506.414 572.394 489.373 591.24C477.935 603.89 477.449 624.618 478.503 640.661C479.842 661.038 487.715 683.173 503.967 696.564C524.622 713.592 546.096 715.631 571.542 715.049C596.773 712.906 618.159 707.151 635.248 687.061C656.226 662.403 667.4 607.029 638.744 584.041ZM913.05 616.248C911.096 570.369 852.61 565.282 817.696 566.636C772.992 570.027 737.135 586.261 741.231 637.165C745.714 692.817 784.406 717.823 838.398 714.523C894.614 710.604 915.266 668.379 913.05 616.248Z" fill="#FB5002"/>
<path d="M821.26 587.363C865.83 584.574 874.83 680.007 825.105 688.794C776.556 689.872 773.653 594.235 821.26 587.363Z" fill="#FB5002"/>
<path d="M302.785 207.697C316.318 206.608 326.927 207.617 339.369 213.338C356.043 221.045 368.917 235.134 375.093 252.434C381.073 268.921 380.184 287.118 372.626 302.943C364.155 320.745 350.034 332.207 331.707 338.786C333.081 366.556 333.673 394.665 335.496 422.41C335.963 422.416 336.429 422.431 336.894 422.455C377.263 424.436 420.509 454.665 446.993 483.978C444.592 487.627 442.291 491.342 440.093 495.118C408.938 548.857 391.71 614.509 408.333 675.776C417.613 709.98 435.898 740.27 465.011 761.162C472.773 766.734 479.861 770.408 488.002 775.129C492.005 789.806 494.964 793.829 505.294 804.703C468.388 849.824 478.031 901.57 518.308 940.476C519.091 942.006 519.094 942.208 519.514 943.898L518.914 944.547C514.49 945.203 509.644 945.031 505.148 945.098C437.136 946.201 379.878 920.508 331.741 872.816C249.125 790.957 220.153 660.536 253.597 550.013C259.172 531.589 265.115 515.567 272.854 497.82C277.085 488.118 286.987 471.637 290.168 463.217C291.251 460.348 290.69 433.196 290.699 428.291L290.685 338.593C285.099 336.457 279.748 333.753 274.716 330.522C259.872 320.933 249.441 305.846 245.713 288.573C241.868 271.258 245.198 253.124 254.944 238.305C266.778 220.427 282.254 211.804 302.785 207.697Z" fill="#FB5002"/>
<path d="M718.393 785.936C721.963 789.634 724.963 793.388 728.949 796.749C773.874 834.633 854.435 842.727 902.115 806.43C922.517 832.098 930.642 869.35 916.32 899.733C913.277 889.691 907.724 882.092 900.676 874.604C905.36 892.318 906.781 905.17 902.782 923.105C892.024 922.229 878.976 920.067 868.169 918.573L809.828 910.534C796.749 908.74 766.22 900.382 759.834 914.716C754.323 927.078 768.547 948.858 773.029 961.527L773.323 962.359C766.018 965.28 753.876 967.711 746.149 969.707C724.014 975.408 701.757 979.467 679.309 983.729C655.601 988.113 621.985 992.368 597.622 993.318C591.682 981.433 589.139 968.531 586.723 955.618C581.728 970.491 581.505 977.575 582.838 993.079C580.636 993.305 576.364 993.838 574.39 993.048C547.657 982.345 531.947 947.976 526.372 921.598C523.754 909.217 524.371 891.014 525.486 879.043C517.683 893.738 516.39 900.847 514.093 916.89C503.887 903.75 497.933 890.371 496.676 873.581C494.782 851.226 502.12 829.079 516.983 812.277C574.099 849.524 676.37 844.234 718.393 785.936Z" fill="#FB5002"/>
<path d="M232.133 762.889C233.669 764.707 233.269 783.364 233.29 787.191C173.149 851.103 213.716 916.216 281 950.168C398.068 1009.25 541.032 1012.27 668.857 996.869C708.075 992.142 753.545 980.33 791.324 969.413C786.597 955.771 777.572 938.381 773.102 924.341C772.863 923.582 773.616 923.172 774.388 922.345C778.894 920.551 783.297 922.296 788.005 923L810.41 926.209L861.745 933.581C873.575 935.222 887.413 936.263 898.557 939.581C905.666 941.694 901.116 954.393 898.263 958.336C895.912 961.594 893.432 966.89 891.338 970.552L873.863 1001.09L851.654 1037.57C847.564 1044.26 843.658 1051.86 838.778 1057.98C837.522 1059.55 836.163 1060.94 834.296 1061.75C832.152 1062.69 829.728 1062.84 827.566 1061.89C821.027 1059.01 809.552 1026.41 806.234 1018.68C687.459 1051.17 564.625 1064.61 441.952 1047.6C359.399 1036.16 244.962 1005.36 191.818 935.179C175.884 914.14 165.955 885.356 170.429 858.99C177.322 818.363 199.896 787.007 232.133 762.889Z" fill="#FB5002"/>
<path d="M665.508 709.9C685.493 707.647 704.04 712.71 718.154 727.21C724.736 718.46 731.6 713.966 742.744 712.961C774.082 710.077 795.788 736.241 822.337 748.304C855.689 763.458 892.201 766.018 918.108 736.682C921.347 755.308 920.588 766.207 909.462 782.531C897.828 799.596 872.418 810.704 852.389 813.459C812.375 818.97 770.855 810.018 738.151 786.371C729.291 779.378 724.417 772.692 718.319 763.36C703.238 785.262 688.781 795.812 664.063 806.54C624.269 823.378 577.233 823.733 537.129 808.028C507.87 796.572 486.484 770.169 500.081 738.329C508.988 752.253 522.057 760.721 538.619 761.591C591.168 764.358 613.854 715.845 665.508 709.9Z" fill="#FB5002"/>
<path d="M1013.58 706.134C1031.38 715.674 1052.77 731.631 1062.46 749.198C1110.83 836.837 1007.42 920.661 942.631 958.832C928.401 967.276 924.317 966.278 918.959 950.119C912.364 930.207 903.296 929.068 924.084 916.779C976.583 885.729 1072.49 811.01 1021.87 742.652C1019.21 739.052 1014.91 735.476 1011.46 732.629C1012.11 723.793 1012.82 714.958 1013.58 706.134Z" fill="#FB5002"/>
<path d="M652.202 405.585C654.168 405.305 655.595 405.152 657.578 405.509C660.866 406.12 663.75 408.058 665.563 410.865C669.892 417.58 667.92 428.426 659.942 431.254C655.735 432.952 650.99 433.292 646.52 433.915C582.379 442.859 521.245 478.599 488.108 535.225C483.156 543.687 478.551 555.815 469.96 560.61C469.458 560.724 468.954 560.828 468.449 560.924C454.07 563.593 452.416 548.676 457.467 538.08C493.137 463.265 571.09 414.734 652.202 405.585Z" fill="#FB5002"/>
</svg>
